<?xml version="1.0" standalone="no"?><!DOCTYPE svg PUBLIC "-//W3C//DTD SVG 1.1//EN" "http://www.w3.org/Graphics/SVG/1.1/DTD/svg11.dtd"><svg class="icon" width="200px" height="200.00px" viewBox="0 0 1024 1024" version="1.1" xmlns="http://www.w3.org/2000/svg"><path fill="#999999" d="M639.539256 735.853347l45.537126 0c113.847931-37.94931 179.62196-127.763872 197.334367-269.437545 2.53166-75.897597-8.855692-132.821051-34.154891-170.766268-65.778122-108.788705-172.035168-164.444283-318.768067-166.975942-53.128011-2.527566-116.717282 2.152013-182.154643 34.153868-133.703141 65.388243-194.802708 183.417403-204.921159 314.976718-5.059226 73.365938 6.324032 142.937456 34.152844 208.716602 63.247486 131.554198 164.445306 201.124693 303.59039 208.716602 123.967406 5.059226 234.015801-34.153868 330.153372-117.639281l-41.741683-45.541219c-113.847931 93.610004-237.814314 120.171963-371.897102 79.695087C280.292266 761.151523 217.046826 665.013953 206.925305 523.341303c2.52859-63.24851 17.70729-121.434723 45.538149-174.562734 55.655578-101.19782 145.245012-164.54559 269.436522-163.181523 182.76965 2.007727 282.083563 91.078345 299.7929 227.691769 2.529613 126.494972-43.007513 211.249285-136.612401 254.257821l-22.77061 0c-17.712407-12.651135-24.034393-30.357402-18.975167-53.128011l94.867648-314.973648-75.892481 0-11.388375 41.741683-22.769586-30.357402c-63.247486-43.00956-129.023562-44.272319-197.330274-3.795443C370.101711 352.572988 330.889641 410.126798 313.178257 479.698317c-17.70729 69.574588-16.443507 126.498042 3.795443 170.770362 20.237927 44.273343 55.660694 70.203922 106.256022 77.792761 58.189284 5.059226 110.052488-16.442484 155.588591-64.511269l0 3.795443C578.819336 700.431603 599.061356 723.202213 639.539256 735.853347zM468.770941 659.954727l-49.335638-3.796466c-37.94624-12.646018-54.392818-45.536103-49.333592-98.665137 20.237927-126.493949 74.635861-198.596104 163.1805-216.307488 53.129035 2.532683 83.486436 22.77061 91.077322 60.71992C616.76967 533.459754 564.909535 619.476827 468.770941 659.954727z" /></svg>