<?xml version="1.0" standalone="no"?><!DOCTYPE svg PUBLIC "-//W3C//DTD SVG 1.1//EN" "http://www.w3.org/Graphics/SVG/1.1/DTD/svg11.dtd"><svg class="icon" width="200px" height="200.00px" viewBox="0 0 1024 1024" version="1.1" xmlns="http://www.w3.org/2000/svg"><path fill="#ffffff" d="M808.407 455.68v112.64c0 8.479-6.871 15.36-15.36 15.36h-208.21v208.21c0 8.489-6.881 15.36-15.36 15.36h-112.64c-8.479 0-15.36-6.871-15.36-15.36V583.68h-208.21c-8.489 0-15.36-6.881-15.36-15.36V455.68c0-8.479 6.871-15.36 15.36-15.36h208.21V232.11c0-8.489 6.881-15.36 15.36-15.36h112.64c8.479 0 15.36 6.871 15.36 15.36v208.21h208.21c8.489 0 15.36 6.881 15.36 15.36z"  /></svg>