<?xml version="1.0" standalone="no"?><!DOCTYPE svg PUBLIC "-//W3C//DTD SVG 1.1//EN" "http://www.w3.org/Graphics/SVG/1.1/DTD/svg11.dtd"><svg class="icon" width="200px" height="200.00px" viewBox="0 0 1024 1024" version="1.1" xmlns="http://www.w3.org/2000/svg"><path fill="#68c79c" d="M362.666667 85.333333a32 32 0 0 1 22.293333 9.045334l2.133333 2.282666L503.893333 234.666667H874.666667a64 64 0 0 1 64 64v576a64 64 0 0 1-64 64H149.333333a64 64 0 0 1-64-64V117.333333a32 32 0 0 1 28.928-31.850666L117.333333 85.333333H362.666667z m512 213.333334H149.333333v576h725.333334V298.666667z m-362.666667 117.333333a32 32 0 0 1 32 32v96H640a32 32 0 0 1 3.072 63.850667L640 608h-96V704a32 32 0 0 1-64 0v-96H384a32 32 0 0 1-3.072-63.850667L384 544h96V448a32 32 0 0 1 32-32zM347.818667 149.333333H149.333333v85.333334h270.698667l-72.213333-85.333334z"  /></svg>