<?xml version="1.0" standalone="no"?><!DOCTYPE svg PUBLIC "-//W3C//DTD SVG 1.1//EN" "http://www.w3.org/Graphics/SVG/1.1/DTD/svg11.dtd"><svg class="icon" width="200px" height="200.00px" viewBox="0 0 1024 1024" version="1.1" xmlns="http://www.w3.org/2000/svg"><path fill="#b4b4b4" d="M794.770036 0 228.223389 0C205.69064 0 187.425673 17.976671 187.425673 40.158288l0 943.683424c0 22.181617 18.2662 40.158288 40.797716 40.158288l566.546647 0c22.531516 0 40.798948-17.976671 40.798948-40.158288L835.568984 40.158288C835.568984 17.981599 817.301552 0 794.770036 0L794.770036 0zM477.403133 55.370265l68.187159 0c12.55447 0 22.72741 10.174172 22.72741 22.72741 0 12.55447-10.17294 22.72741-22.72741 22.72741l-68.187159 0c-12.553238 0-22.731106-10.17294-22.731106-22.72741C454.672026 65.544437 464.849895 55.370265 477.403133 55.370265L477.403133 55.370265zM556.954613 975.042494l-90.919498 0 0-90.918266 90.919498 0L556.954613 975.042494 556.954613 975.042494zM766.769502 816.721878c0 22.531516-18.2662 40.797716-40.797716 40.797716L297.022871 857.519594c-22.531516 0-40.798948-18.2662-40.798948-40.797716L256.223923 167.470965c0-22.531516 18.267432-40.797716 40.798948-40.797716l428.948915 0c22.531516 0 40.797716 18.2662 40.797716 40.797716L766.769502 816.721878 766.769502 816.721878zM766.769502 816.721878" /></svg>