<?xml version="1.0" standalone="no"?><!DOCTYPE svg PUBLIC "-//W3C//DTD SVG 1.1//EN" "http://www.w3.org/Graphics/SVG/1.1/DTD/svg11.dtd"><svg class="icon" width="200px" height="198.83px" viewBox="0 0 1030 1024" version="1.1" xmlns="http://www.w3.org/2000/svg"><path fill="#c8ebdf" d="M566.613333 512l279.893334-279.893333c13.653333-13.653333 13.653333-34.133333 0-47.786667-13.653333-13.653333-34.133333-13.653333-47.786667 0l-286.72 273.066667-273.066667-273.066667c-13.653333-13.653333-34.133333-13.653333-47.786666 0-13.653333 13.653333-13.653333 34.133333 0 47.786667l279.893333 279.893333-279.893333 279.893333c-13.653333 13.653333-13.653333 34.133333 0 47.786667 13.653333 13.653333 34.133333 13.653333 47.786666 0l279.893334-279.893333 279.893333 279.893333c13.653333 13.653333 34.133333 13.653333 47.786667 0 13.653333-13.653333 13.653333-34.133333 0-47.786667L566.613333 512z m0 0" /></svg>