<?xml version="1.0" standalone="no"?><!DOCTYPE svg PUBLIC "-//W3C//DTD SVG 1.1//EN" "http://www.w3.org/Graphics/SVG/1.1/DTD/svg11.dtd"><svg class="icon" width="200px" height="142.72px" viewBox="0 0 1435 1024" version="1.1" xmlns="http://www.w3.org/2000/svg"><path fill="#b4b4b4" d="M0 954.706767c0 69.293233 61.593985 69.293233 61.593985 69.293233h1308.87218s65.443609 0 65.443609-69.293233-65.443609-69.293233-65.443609-69.293233h-1308.87218S0 885.413534 0 954.706767z m554.345865-34.646617h261.774436s30.796992 0 30.796992 34.646617-30.796992 34.646617-30.796992 34.646616h-261.774436s-30.796992 0-30.796993-34.646616 30.796992-34.646617 30.796993-34.646617z m816.1203-100.090225V134.736842C1370.466165 0 1239.578947 0 1239.578947 0H196.330827S65.443609 0 65.443609 134.736842v681.383459h73.142857L130.887218 134.736842c0-61.593985 69.293233-69.293233 69.293233-69.293233H1231.879699s73.142857 7.699248 73.142857 69.293233v681.383459h65.443609z m0 0" /></svg>