<?xml version="1.0" standalone="no"?><!DOCTYPE svg PUBLIC "-//W3C//DTD SVG 1.1//EN" "http://www.w3.org/Graphics/SVG/1.1/DTD/svg11.dtd"><svg class="icon" width="200px" height="200.00px" viewBox="0 0 1024 1024" version="1.1" xmlns="http://www.w3.org/2000/svg"><path fill="#ffffff" d="M253.366857 356.864l77.604572 77.531429-103.424 103.497142a182.857143 182.857143 0 0 0 249.782857 266.825143l8.777143-8.265143 103.497142-103.424 77.531429 77.531429-103.424 103.497143A292.571429 292.571429 0 1 1 149.942857 460.288l103.424-103.424zM460.288 149.942857a292.571429 292.571429 0 1 1 413.769143 413.769143l-103.424 103.424-77.604572-77.531429 103.424-103.497142a182.857143 182.857143 0 0 0-249.782857-266.825143l-8.777143 8.265143-103.497142 103.424-77.531429-77.531429L460.288 149.942857zM628.297143 318.025143l77.531428 77.604571L395.702857 705.974857 318.098286 628.297143 628.297143 318.025143z" /></svg>