<?xml version="1.0" standalone="no"?><!DOCTYPE svg PUBLIC "-//W3C//DTD SVG 1.1//EN" "http://www.w3.org/Graphics/SVG/1.1/DTD/svg11.dtd"><svg class="icon" width="200px" height="200.00px" viewBox="0 0 1024 1024" version="1.1" xmlns="http://www.w3.org/2000/svg"><path fill="#42b983" d="M550.093597 655.80829l0.00307 0.005117 154.980747-172.200944-0.00307-0.004093c8.244778-9.153474 13.265118-21.267373 13.265118-34.55705 0-28.529777-23.127743-51.66059-51.66059-51.66059-15.243169 0-28.938076 6.605442-38.392402 17.105586l-0.00614-0.002047-64.922638 72.133877L563.357691 147.697877c0-0.002047 0-0.002047 0-0.002047 0-28.531823-23.12365-51.66059-51.662637-51.66059-28.526707 0-51.65445 23.12979-51.65445 51.66059 0 0 0 0 0 0.002047l0 338.929246-64.925708-72.133877-0.00307 0.002047c-9.456373-10.500145-23.151279-17.105586-38.395472-17.105586-28.529777 0-51.65752 23.130813-51.65752 51.66059 0 13.289678 5.018294 25.403576 13.265118 34.55705l-0.00307 0.004093 154.98177 172.201967 0.00307-0.005117c9.456373 10.501168 23.14821 17.10354 38.389332 17.10354C526.942317 672.91183 540.640294 666.309458 550.093597 655.80829zM856.102059 618.004289l0 206.641337L167.29726 824.645626 167.29726 618.004289c0-28.532847-23.130813-51.66059-51.66059-51.66059s-51.66059 23.127743-51.66059 51.66059l0 258.301927c0 28.5308 23.130813 51.658544 51.66059 51.658544l792.125979 0c28.535917 0 51.662637-23.127743 51.662637-51.658544L959.425286 618.004289c0-28.532847-23.127743-51.66059-51.662637-51.66059C879.232872 566.343699 856.102059 589.471442 856.102059 618.004289z" /></svg>