<?xml version="1.0" standalone="no"?><!DOCTYPE svg PUBLIC "-//W3C//DTD SVG 1.1//EN" "http://www.w3.org/Graphics/SVG/1.1/DTD/svg11.dtd"><svg class="icon" width="200px" height="198.64px" viewBox="0 0 1031 1024" version="1.1" xmlns="http://www.w3.org/2000/svg"><path fill="#cccccc" d="M0 714.752q0-50.176 13.312-87.04t48.128-69.632v313.344q-35.84-31.744-48.64-68.608t-12.8-88.064zM959.488 558.08q30.72 23.552 49.664 65.024t18.944 91.648q0 51.2-14.848 87.552t-53.76 69.12V558.08zM837.632 512q19.456 0 38.912 15.36t19.456 43.008v265.216q0 12.288-5.632 23.04t-13.824 19.456-18.944 13.312T837.632 896h-71.68q-26.624 0-44.544-16.384t-17.92-44.032V570.368q0-27.648 19.968-43.008T765.952 512h71.68z m-585.728 0q29.696 0 48.128 14.336t18.432 45.056V829.44q0 30.72-15.872 48.128t-41.472 17.408H186.368q-30.72 0-45.568-18.432t-14.848-45.056V571.392q0-30.72 18.432-45.056T188.416 512h63.488zM512 62.464q80.896 0 152.576 27.648t125.44 78.336 84.48 121.344 30.72 155.648h-67.584q-25.6 0-46.08 0.512t-20.48-0.512q0-63.488-21.504-112.128t-56.832-81.408-81.92-49.152-98.816-16.384q-51.2 0-97.28 21.504t-81.408 57.856-56.832 82.944-21.504 96.768H119.808q0-84.992 30.72-155.648t83.968-121.344 124.928-78.336 152.576-27.648z" /></svg>