<?xml version="1.0" standalone="no"?><!DOCTYPE svg PUBLIC "-//W3C//DTD SVG 1.1//EN" "http://www.w3.org/Graphics/SVG/1.1/DTD/svg11.dtd"><svg class="icon" width="200px" height="200.00px" viewBox="0 0 1024 1024" version="1.1" xmlns="http://www.w3.org/2000/svg"><path fill="#2b9371" d="M836.864 409.72288h-72.192v-132.352c0-138.368-114.304-234.62912-252.67712-234.62912s-252.67712 96.256-252.67712 234.62912V403.712H187.13088c-36.096 0-60.16 30.08-60.16 60.16v457.22112c0 36.096 30.08 60.16 60.16 60.16H836.864c36.10624 0 60.16512-30.08512 60.16512-60.16V469.888c0-36.096-24.05888-60.16512-60.16512-60.16512z m-288.768 300.80512v102.272c0 6.02112-6.01088 6.02112-6.01088 6.02112H487.936c-6.016 0-6.016-6.02112-6.016-6.02112v-102.272c-30.08-12.03712-48.128-36.096-48.128-66.176 0-42.11712 36.096-78.208 78.208-78.208s78.208 36.096 78.208 78.208c0 30.08512-18.048 54.144-42.112 66.176z m120.32512-300.80512H355.57888V271.36c0-72.19712 72.192-132.35712 156.42112-132.35712 84.224 0 156.42112 60.16 156.42112 132.35712v138.36288z" /></svg>