<?xml version="1.0" standalone="no"?><!DOCTYPE svg PUBLIC "-//W3C//DTD SVG 1.1//EN" "http://www.w3.org/Graphics/SVG/1.1/DTD/svg11.dtd"><svg class="icon" width="200px" height="200.00px" viewBox="0 0 1024 1024" version="1.1" xmlns="http://www.w3.org/2000/svg"><path fill="#42b983" d="M517.73 212.296c-72.511 0-131.506 58.994-131.506 131.508S445.22 475.31 517.73 475.31c72.516 0 131.51-58.993 131.51-131.506s-58.994-131.508-131.51-131.508z"  /><path fill="#42b983" d="M517.728 62.464c-247.141 0-447.488 200.347-447.488 447.488 0 247.14 200.347 447.488 447.488 447.488 247.14 0 447.488-200.348 447.488-447.488 0-247.141-200.347-447.488-447.488-447.488zM299.515 742.682c0 13.551-11.021 24.577-24.573 24.577s-24.577-11.026-24.577-24.577c0-109.255 68.04-207.92 168.253-248.133-50.224-33.149-81.544-89.904-81.544-150.745 0-99.614 81.042-180.656 180.656-180.656s180.656 81.041 180.656 180.656-81.041 180.654-180.656 180.654c-120.323-0.001-218.215 97.896-218.215 218.224z m461 24.577c-13.552 0-24.573-11.026-24.573-24.577 0-68.579-31.298-131.826-85.862-173.524-10.772-8.233-12.835-23.69-4.606-34.458 8.203-10.75 23.647-12.83 34.427-4.61l0.01 0.01c66.843 51.085 105.176 128.564 105.176 212.583 0 13.55-11.02 24.576-24.572 24.576z"  /></svg>