<?xml version="1.0" standalone="no"?><!DOCTYPE svg PUBLIC "-//W3C//DTD SVG 1.1//EN" "http://www.w3.org/Graphics/SVG/1.1/DTD/svg11.dtd"><svg class="icon" width="200px" height="200.00px" viewBox="0 0 1024 1024" version="1.1" xmlns="http://www.w3.org/2000/svg"><path fill="#c8ebdf" d="M706.226586 477.465462l0-0.008186L441.443038 306.33285c-0.090051-0.070608-0.184195-0.124843-0.282433-0.180102l-0.145309-0.094144c-5.386684-3.493567-11.675924-5.502317-18.396999-5.502317-19.96982 0-36.164664 17.711384-36.164664 39.556924l0 342.797343c0 21.853727 16.194844 39.565111 36.164664 39.565111 6.721075 0 13.009292-2.00875 18.396999-5.502317l0.145309-0.094144c0.098237-0.062422 0.192382-0.116657 0.282433-0.187265l264.783549-171.132612c10.633175-6.878664 17.771759-19.548218 17.771759-34.046421C723.998345 497.012657 716.858738 484.35129 706.226586 477.465462zM513.027399 47.198975c-256.32797 0-464.117456 207.829396-464.117456 464.172715 0 256.249175 207.79051 464.055035 464.117456 464.055035 256.31876 0 464.10927-207.80586 464.10927-464.055035C977.136669 255.028371 769.346159 47.198975 513.027399 47.198975zM513.027399 888.402719c-208.265324 0-377.086287-168.764682-377.086287-377.031029 0-208.289883 168.820963-377.109824 377.086287-377.109824s377.090381 168.818917 377.090381 377.109824C890.11778 719.638037 721.292724 888.402719 513.027399 888.402719z" /></svg>