<?xml version="1.0" standalone="no"?><!DOCTYPE svg PUBLIC "-//W3C//DTD SVG 1.1//EN" "http://www.w3.org/Graphics/SVG/1.1/DTD/svg11.dtd"><svg class="icon" width="200px" height="200.00px" viewBox="0 0 1024 1024" version="1.1" xmlns="http://www.w3.org/2000/svg"><path fill="#b4b4b4" d="M716.8 34.304H307.2c-56.32 0-102.4 46.08-102.4 102.4v751.104c0 56.32 46.08 102.4 102.4 102.4h409.6c56.32 0 102.4-46.08 102.4-102.4V136.704c0-56.832-46.08-102.4-102.4-102.4z m-204.8 904.192c-34.304 0-61.952-28.672-61.952-63.488 0-34.816 27.648-63.488 61.952-63.488 34.304 0 61.952 28.672 61.952 63.488 0 35.328-27.648 63.488-61.952 63.488z m245.248-190.464H266.752V124.928h490.496v623.104z"  /></svg>