<?xml version="1.0" standalone="no"?><!DOCTYPE svg PUBLIC "-//W3C//DTD SVG 1.1//EN" "http://www.w3.org/Graphics/SVG/1.1/DTD/svg11.dtd"><svg class="icon" width="200px" height="200.00px" viewBox="0 0 1024 1024" version="1.1" xmlns="http://www.w3.org/2000/svg"><path fill="#68c79c" d="M506.5 920.9c-225.8 0-409.4-183.7-409.4-409.4s183.7-409.4 409.4-409.4 409.4 183.7 409.4 409.4-183.6 409.4-409.4 409.4z m0-746c-185.6 0-336.6 151-336.6 336.6s151 336.6 336.6 336.6 336.6-151 336.6-336.6-151-336.6-336.6-336.6z"  /><path fill="#68c79c" d="M716.1 597.8h-265v-265c0-20.1 16.3-36.4 36.4-36.4 20.1 0 36.4 16.3 36.4 36.4v192.3h192.3c20.1 0 36.4 16.3 36.4 36.4s-16.4 36.3-36.5 36.3z"  /></svg>