<?xml version="1.0" standalone="no"?><!DOCTYPE svg PUBLIC "-//W3C//DTD SVG 1.1//EN" "http://www.w3.org/Graphics/SVG/1.1/DTD/svg11.dtd"><svg class="icon" width="200px" height="200.00px" viewBox="0 0 1024 1024" version="1.1" xmlns="http://www.w3.org/2000/svg"><path fill="#ffffff" d="M440.748 136.826L223.569 309.259v0.72h-101.61c-32.244 0-58.626 26.382-58.626 58.626v287.728c0 32.244 26.382 58.626 58.626 58.626h103.782l215.122 169.203c21.178 16.658 52.239 1.571 52.239-25.373v-696.68c0-27.014-31.199-42.08-52.354-25.283zM766.276 829.777c-11.3 0-22.53-4.763-30.442-14.031-14.342-16.803-12.348-42.051 4.454-56.394 74.67-63.737 117.495-156.539 117.495-254.609 0-90.306-35.43-174.951-99.763-238.342-15.735-15.505-15.922-40.832-0.417-56.567s40.832-15.923 56.567-0.417c38.713 38.146 69.13 82.726 90.404 132.499 22.035 51.552 33.208 106.335 33.208 162.828 0 121.517-53.053 236.497-145.556 315.457a39.84 39.84 0 0 1-25.95 9.576z"  /><path fill="#ffffff" d="M704.102 660.245a39.818 39.818 0 0 1-21.55-6.33c-18.598-11.923-24.009-36.664-12.087-55.263 17.872-27.878 27.318-60.352 27.318-93.909 0-34.762-10.09-68.218-29.179-96.75-12.284-18.361-7.357-43.204 11.004-55.488 18.363-12.286 43.205-7.356 55.488 11.004 27.926 41.742 42.687 90.58 42.687 141.235 0 48.893-13.821 96.296-39.969 137.085-7.637 11.913-20.538 18.416-33.712 18.416z"  /></svg>