<?xml version="1.0" standalone="no"?><!DOCTYPE svg PUBLIC "-//W3C//DTD SVG 1.1//EN" "http://www.w3.org/Graphics/SVG/1.1/DTD/svg11.dtd"><svg class="icon" width="200px" height="200.00px" viewBox="0 0 1024 1024" version="1.1" xmlns="http://www.w3.org/2000/svg"><path fill="#b4b4b4" d="M135.2 804c-66.4 0-120.8-54.4-120.8-120.8V218.4c0-66.4 54.4-120.8 120.8-120.8h760c66.4 0 120.8 54.4 120.8 120.8v464.8c0.8 32-12 61.6-34.4 84.8-23.2 23.2-53.6 36-86.4 36h-760z m0-650.4c-36 0-64.8 28.8-64.8 64.8v464.8c0 36 28.8 64.8 64.8 64.8h760c36 0 64.8-28.8 64.8-64.8V218.4c0-36-28.8-64.8-64.8-64.8h-760z"  /><path fill="#b4b4b4" d="M525.6 901.6c-11.2 0-20.8-9.6-20.8-20.8v-84c0-11.2 9.6-20.8 20.8-20.8s20.8 9.6 20.8 20.8V880c0 12-8.8 21.6-20.8 21.6z"  /><path fill="#b4b4b4" d="M291.2 930.4c-14.4 0-26.4-12-26.4-26.4 0-15.2 11.2-26.4 26.4-26.4h448c14.4 0 26.4 12 26.4 26.4 0.8 6.4-1.6 12.8-6.4 17.6-4.8 5.6-12 8.8-20 8.8h-448z"  /></svg>