<?xml version="1.0" standalone="no"?><!DOCTYPE svg PUBLIC "-//W3C//DTD SVG 1.1//EN" "http://www.w3.org/Graphics/SVG/1.1/DTD/svg11.dtd"><svg class="icon" width="200px" height="200.00px" viewBox="0 0 1024 1024" version="1.1" xmlns="http://www.w3.org/2000/svg"><path fill="#d81e06" d="M448 578.048c-0.512 0.512-1.024 0.512-1.536 1.024-6.656 4.608-8.704 13.824-4.608 20.48 4.096 5.632 11.776 6.656 17.408 2.56l1.024-1.024c6.656-4.608 8.704-13.312 5.632-20.48-4.096-5.632-12.288-6.656-17.92-2.56zM394.24 593.408c-20.48 2.048-33.28 17.92-34.304 36.864 0 16.896 16.896 28.672 36.864 26.112 20.48-2.56 36.352-17.92 36.352-34.816s-13.312-30.72-38.912-28.16z"  /><path fill="#d81e06" d="M441.344 484.352c-102.912 4.608-186.368 59.904-186.368 129.024s83.456 120.32 186.368 116.224c102.912-4.608 186.88-69.632 186.88-138.24 0-69.632-83.456-111.616-186.88-107.008z m77.824 162.816c-32.768 42.496-98.816 63.488-162.304 29.184-17.92-9.728-28.672-28.16-29.184-48.64 0 0-12.288-101.888 96.256-114.176 108.544-12.8 128.512 91.136 95.232 133.632z"  /><path fill="#d81e06" d="M509.44 20.48c-270.848 0-490.496 219.648-490.496 490.496s219.648 490.496 490.496 490.496 490.496-219.648 490.496-490.496-219.648-490.496-490.496-490.496z m210.944 615.936c-42.496 90.112-182.784 134.144-286.72 126.464-98.816-7.68-225.792-40.448-238.592-160.256 0 0-6.656-53.76 45.568-124.416 0 0 75.264-105.472 163.328-135.68 88.064-30.208 98.304 20.992 98.304 50.688-4.608 25.6-13.312 40.448 19.456 30.208 0 0 86.528-40.448 121.856-4.608 28.672 28.672 4.608 68.096 4.608 68.096s-11.776 13.312 12.8 17.92c24.576 5.12 101.888 40.96 59.392 131.584z m-86.528-249.344h1.024-1.024c-8.704-0.512-15.872-8.192-15.872-16.896 0-9.216 7.68-16.896 16.896-16.896 0 0 105.984-19.456 93.184 94.208 0 0.512-0.512 1.024-0.512 2.048-1.536 8.192-9.216 14.336-17.408 14.336-9.216 0-18.944-7.68-18.944-16.896v-0.512c0-0.512 18.432-76.288-57.344-59.392z m180.736 80.896c-3.072 19.456-12.288 25.6-23.552 25.6-13.312 0-24.576-3.584-24.576-17.408 0-8.192 2.048-16.384 4.608-23.552 1.536-5.12 12.8-35.84-7.68-81.92-37.888-63.488-113.664-64.512-122.368-60.416-7.168 2.56-14.848 4.096-22.528 5.12-13.824 0-24.576-11.264-24.576-25.088 0-11.264 7.168-20.992 17.92-24.064 0-0.512 0.512-1.024 0.512-1.024 0.512-1.024 1.536-1.536 2.56-2.048 10.752-2.048 48.128-11.776 84.992-3.072 65.024 14.848 155.136 91.136 114.688 207.872z"  /></svg>