<?xml version="1.0" standalone="no"?><!DOCTYPE svg PUBLIC "-//W3C//DTD SVG 1.1//EN" "http://www.w3.org/Graphics/SVG/1.1/DTD/svg11.dtd"><svg class="icon" width="200px" height="200.00px" viewBox="0 0 1024 1024" version="1.1" xmlns="http://www.w3.org/2000/svg"><path fill="#42b983" d="M688.64 356.48L587.52 256l-304 301.44L384 657.92l304-301.44zM789.76 256a35.2 35.2 0 0 0 0-49.92l-50.56-49.92a35.84 35.84 0 0 0-50.56 0l-76.16 74.88L713.6 331.52 789.76 256zM256 582.4l-32 133.76 135.04-33.28L256 582.4z m602.24 241.92h-694.4c-19.84 0-35.84 0-35.84 18.56a35.84 35.84 0 0 0 35.84 35.84h696.32A35.84 35.84 0 0 0 896 842.88c0-19.84-16-18.56-35.84-18.56z"  /></svg>